<svg width="500" height="500" viewBox="0 0 500 500" fill="none" xmlns="http://www.w3.org/2000/svg">
<path d="M250.146 60.2471C253.262 57.9473 256.472 55.5393 259.827 53.6084C276.919 43.9619 296.731 40.2696 316.15 43.1116C329.077 45.0105 341.421 49.7561 352.292 57.0061C361.123 62.9295 369.304 71.982 376.916 79.6262L405.032 107.781L426.912 129.654C430.378 133.117 434.263 136.738 437.549 140.329C463.227 168.388 465.237 215.508 442.764 246.111C444.585 249.121 446.604 251.809 448.262 254.959C463.037 283.035 462.251 319.211 442.422 344.741C438.518 349.766 432.986 354.668 428.379 359.124C421.531 365.715 414.729 372.356 407.971 379.038L371.277 414.941C362.773 423.225 355.142 432.102 344.831 438.208C325.295 449.778 301.448 452.988 279.497 447.239C270.557 444.907 256.699 439.043 250.061 432.629C239.068 441.13 228.901 445.745 215.199 448.416C193.973 452.554 170.037 448.196 152.078 436.05C144.349 430.82 136.958 422.688 130.138 416.05L95.4806 382.061C86.6994 373.445 78.0241 364.736 69.0766 356.292C64.7013 352.163 60.2748 348.042 56.7062 343.174C49.9067 333.835 45.2895 323.091 43.195 311.733C39.0014 288.997 44.0795 265.527 57.2973 246.558C57.1547 245.281 52.8207 238.831 51.9381 237.058C51.0426 235.258 50.1115 233.357 49.2829 231.412C46.3583 224.469 44.277 217.2 43.0841 209.761C39.6122 188.419 44.5529 164.765 57.2817 147.182C62.0028 140.661 67.913 135.175 73.6025 129.488L94.5436 108.556L122.23 80.8882C127.569 75.5559 132.964 70.1619 138.443 65.0156C159.196 45.5222 190.049 38.0767 217.591 44.826C229.34 47.7049 240.284 53.085 250.146 60.2471Z" fill="#112A4D"/>
<path d="M250.303 167.39C268.513 153.851 296.228 148.844 318.406 152.123C337.683 154.904 355.818 162.961 370.803 175.403C378.479 181.825 387.869 191.547 395.291 198.753L436.318 238.954C438.608 241.221 440.811 244.211 442.764 246.111C444.585 249.121 446.604 251.809 448.262 254.959C463.037 283.035 462.251 319.211 442.422 344.741C438.518 349.766 432.986 354.668 428.379 359.124C421.531 365.715 414.729 372.356 407.971 379.038L371.277 414.941C362.773 423.225 355.142 432.102 344.832 438.208C325.295 449.778 301.448 452.988 279.497 447.239C270.557 444.907 256.699 439.043 250.061 432.629C252.354 430.808 258.784 424.182 261.24 421.782L285.203 398.328L310.908 373.123C319.48 364.814 328.372 357.224 334.98 347.283C342.192 336.489 346.768 324.15 348.335 311.265C351.184 287.549 344.595 265.283 329.941 246.582C327.822 244.243 324.749 241.39 322.459 239.121L309.329 226.076L270.999 188.157C264.329 181.525 256.628 174.214 250.303 167.39Z" fill="#112A4D"/>
<path d="M250.146 60.2471C253.262 57.9473 256.472 55.5393 259.827 53.6084C276.919 43.9619 296.731 40.2696 316.15 43.1116C329.077 45.0105 341.421 49.7561 352.292 57.0061C361.123 62.9295 369.304 71.982 376.916 79.6262L405.032 107.781L426.912 129.654C430.378 133.117 434.263 136.738 437.549 140.329C463.227 168.388 465.237 215.508 442.764 246.111C440.811 244.211 438.608 241.221 436.318 238.954L395.29 198.753C387.869 191.547 378.479 181.825 370.803 175.403C355.818 162.961 337.683 154.904 318.406 152.123C296.228 148.844 268.513 153.851 250.303 167.39C247.331 169.575 244.311 172.778 241.642 175.421L230.026 186.893L186.114 230.065C181.155 234.892 175.003 241.512 169.976 245.964C168.297 244.358 165.913 240.515 164.598 238.474C154.689 222.946 149.991 204.663 151.188 186.282C152.093 173.16 156.011 160.485 162.91 149.234C168.486 140.139 176.22 133.18 183.74 125.678C191.778 117.619 199.865 109.608 208.001 101.648C216.804 92.812 225.657 84.0254 234.559 75.2884C239.794 70.1238 244.602 65.0916 250.146 60.2471Z" fill="#13935C"/>
<path d="M329.941 246.582C344.595 265.283 351.184 287.549 348.335 311.265C346.768 324.15 342.192 336.489 334.98 347.283C328.372 357.224 319.48 364.814 310.908 373.123L285.203 398.328L261.24 421.782C258.784 424.182 252.353 430.808 250.061 432.629C239.068 441.13 228.901 445.745 215.199 448.416C193.973 452.554 170.037 448.196 152.078 436.05C144.349 430.82 136.958 422.688 130.138 416.05L95.4806 382.061C86.6994 373.445 78.0241 364.736 69.0766 356.291C64.7013 352.163 60.2748 348.042 56.7062 343.174C49.9067 333.835 45.2895 323.091 43.195 311.733C39.0014 288.997 44.0795 265.527 57.2973 246.558C62.4699 253.105 67.3168 257.61 73.3224 263.438C78.9814 268.918 84.6127 274.429 90.2157 279.966L111.006 300.569C116.301 305.859 124.657 314.402 130.257 318.96C145.04 330.991 164.89 339.006 183.759 341.294C206.014 343.994 231.871 339.856 249.775 325.637L250.229 325.276C252.964 322.803 256.333 319.26 259.06 316.589L280.002 295.945C296.538 279.653 313.694 263.079 329.941 246.582Z" fill="#13935C"/>
<path d="M250.303 167.39C256.628 174.214 264.329 181.525 270.999 188.157L309.329 226.076L322.458 239.121C324.749 241.39 327.822 244.243 329.941 246.582C313.694 263.079 296.538 279.653 280.002 295.945L259.06 316.589C256.333 319.26 252.964 322.803 250.229 325.276L196.962 272.659C188.174 264.004 178.524 254.768 169.977 245.964C175.003 241.512 181.155 234.892 186.115 230.065L230.026 186.893L241.642 175.421C244.312 172.778 247.332 169.575 250.303 167.39Z" fill="#FEFEFE"/>
</svg>
