<?xml version="1.0" encoding="UTF-8"?>
<svg version="1.1" xmlns="http://www.w3.org/2000/svg" width="700" height="700">
<path d="M0 0 C231 0 462 0 700 0 C700 231 700 462 700 700 C469 700 238 700 0 700 C0 469 0 238 0 0 Z " fill="#FDFDFD" transform="translate(0,0)"/>
<path d="M0 0 C231 0 462 0 700 0 C700 65.34 700 130.68 700 198 C698.4026794 194.80535879 697.06094056 191.68730982 695.75 188.375 C689.81148635 174.15018823 681.25978191 163.09476048 668 155 C667.05060547 154.41798828 667.05060547 154.41798828 666.08203125 153.82421875 C653.5258927 146.89023179 639.57015946 145.84476106 625.578125 145.796875 C624.28235535 145.79117493 622.98658569 145.78547485 621.65155029 145.77960205 C618.91483167 145.76914048 616.178142 145.7632664 613.44140625 145.75976562 C609.96404702 145.75429394 606.48708186 145.73027413 603.00984573 145.70179367 C599.6576145 145.67849654 596.30543282 145.67670684 592.953125 145.671875 C591.71943176 145.6595282 590.48573853 145.6471814 589.21466064 145.63446045 C579.47938762 145.65926603 570.44755433 146.67254817 562.3125 152.4296875 C561.30558105 153.12827881 560.29866211 153.82687012 559.26123047 154.54663086 C558.7331781 154.92367157 558.20512573 155.30071228 557.66107178 155.68917847 C555.937397 156.91969162 554.20145496 158.13087146 552.46142578 159.33813477 C550.51395953 160.68944272 548.56734724 162.04183588 546.6242981 163.39949036 C538.0533072 169.38331016 529.37107438 175.2027111 520.69824219 181.03741455 C517.94851922 182.88802044 515.20052243 184.74115866 512.453125 186.59521484 C499.76732015 195.15397726 487.0447858 203.65638658 474.29785156 212.1237793 C466.78660781 217.11326805 459.30724623 222.14345877 451.875 227.25 C439.67422717 235.63164482 427.33212175 243.8013857 415.00219727 251.99121094 C408.24006474 256.48947774 401.51869152 261.04389172 394.8125 265.625 C381.43231453 274.74294897 367.96052753 283.72140205 354.47860718 292.68797302 C349.33198616 296.11151063 344.19039114 299.54251028 339.05078125 302.9765625 C336.8466403 304.44860009 334.64244207 305.92055186 332.43823242 307.39248657 C331.04930474 308.32030606 329.66062214 309.24849256 328.2722168 310.17709351 C321.62867713 314.61997598 314.97264109 319.03214813 308.23046875 323.32421875 C301.8846198 327.37052879 295.68056131 331.6114075 289.4797821 335.87573242 C280.21605654 342.24081152 270.85881448 348.46347578 261.5 354.6875 C259.65096163 355.91849959 257.80200431 357.14962091 255.953125 358.38085938 C252.30765885 360.80833212 248.66181903 363.23524181 245.015625 365.66162109 C238.89258777 369.73654296 232.77281491 373.8163523 226.65371704 377.89718628 C223.98158298 379.67915141 221.30913554 381.46064641 218.63671875 383.2421875 C217.67427246 383.88381836 216.71182617 384.52544922 215.72021484 385.18652344 C165.09411621 418.93725586 165.09411621 418.93725586 114.46801758 452.68798828 C113.6192379 453.25384392 113.6192379 453.25384392 112.75331116 453.83113098 C111.52515775 454.64989636 110.2969976 455.46865161 109.0688324 456.28739929 C105.33388667 458.77729263 105.33388667 458.77729263 101.59936523 461.26782227 C98.30954921 463.462158 95.01742864 465.65295616 91.72265625 467.83984375 C84.06973799 472.92380289 76.44747222 478.04686807 68.875 483.25 C61.72461647 488.1605668 54.53246035 493.00483111 47.3125 497.8125 C46.31452393 498.47725342 45.31654785 499.14200684 44.28833008 499.8269043 C39.0156368 503.33599148 33.73701289 506.83591831 28.453125 510.328125 C26.84763794 511.39196411 26.84763794 511.39196411 25.2097168 512.47729492 C23.17673906 513.82425504 21.14187405 515.16837295 19.10473633 516.5090332 C13.81608787 520.01632895 8.72753362 523.66270436 3.77514648 527.63256836 C2 529 2 529 0 530 C0 355.1 0 180.2 0 0 Z " fill="#FDFDFD" transform="translate(0,0)"/>
<path d="M0 0 C1.33512383 -0.0099852 1.33512383 -0.0099852 2.69721985 -0.02017212 C4.5721329 -0.03024485 6.44708141 -0.03499082 8.32202148 -0.03466797 C11.15084831 -0.03902411 13.97809073 -0.07535381 16.80664062 -0.11328125 C29.26608212 -0.19110005 41.72881337 0.14075139 51.77734375 8.578125 C60.380086 17.41655882 62.94757267 27.28073512 62.88269043 39.31524658 C62.88878153 40.38773832 62.89487264 41.46023006 62.90114832 42.56522155 C62.91773267 46.14157195 62.91300887 49.71756452 62.90820312 53.29394531 C62.91554614 55.8652839 62.92413304 58.43661919 62.93386841 61.00794983 C62.95487005 67.25757443 62.95946626 73.50710615 62.95768052 79.75676188 C62.95637008 84.84035257 62.9601914 89.92391443 62.96760559 95.00749969 C62.96970492 96.4748954 62.97180252 97.9422911 62.97389841 99.4096868 C62.9754637 100.50543397 62.9754637 100.50543397 62.97706062 101.62331745 C62.9959422 115.4236192 62.99491937 129.22386774 62.98809129 143.02417704 C62.98251901 155.62786604 63.00333147 168.23135157 63.03645176 180.83499303 C63.07024941 193.79773046 63.08534944 206.7603706 63.08073473 219.72315288 C63.07849595 226.99217931 63.08364593 234.26101778 63.10862732 241.53000641 C63.13193207 248.36901079 63.12898408 255.20758626 63.1086998 262.04659843 C63.10529644 264.55028806 63.11034952 267.05400634 63.12468338 269.55765724 C63.21765111 287.00616381 62.33063236 301.99767844 49.609375 315.30078125 C45.32161285 319.26968829 40.88565259 322.12451452 35.48828125 324.3359375 C34.39809692 324.84292679 33.3079126 325.34991608 32.18469238 325.87226868 C26.28333086 328.06044407 20.31355691 327.73047025 14.09570312 327.67651367 C12.75463887 327.67566615 11.41357322 327.67614497 10.07250977 327.67784119 C6.45314044 327.67869771 2.83407275 327.66112809 -0.78522682 327.64011931 C-4.5755114 327.62129488 -8.36580381 327.61959755 -12.15612793 327.61604309 C-19.32411958 327.60673949 -26.49197305 327.5821487 -33.659904 327.55199462 C-41.82436446 327.51839797 -49.98883171 327.5019514 -58.15334415 327.48690832 C-74.93954975 327.4555975 -91.72561658 327.40287003 -108.51171875 327.3359375 C-108.51758499 326.14656586 -108.52345123 324.95719421 -108.52949524 323.73178101 C-108.58672294 312.51981461 -108.65948504 301.30804216 -108.74743366 290.09627342 C-108.79214971 284.33226292 -108.8314033 278.56832331 -108.8581543 272.80419922 C-108.88417467 267.24087691 -108.92456858 261.6778272 -108.97490501 256.11467361 C-108.9915822 253.99285906 -109.00309116 251.87099735 -109.00933266 249.74912643 C-109.01896426 246.77565728 -109.04701302 243.80288688 -109.0793457 240.82958984 C-109.07791061 239.9534906 -109.07647552 239.07739136 -109.07499695 238.17474365 C-109.15194208 233.16700585 -109.70376621 229.65678237 -112.51171875 225.3359375 C-118.34754419 220.75156974 -123.67649142 220.73514845 -130.9140625 220.7265625 C-131.99176407 220.71002625 -133.06946564 220.69348999 -134.17982483 220.67645264 C-137.60301478 220.62808544 -141.02576079 220.60662595 -144.44921875 220.5859375 C-146.77801699 220.55776851 -149.10679465 220.52783979 -151.43554688 220.49609375 C-157.12752388 220.42232951 -162.81937662 220.37062091 -168.51171875 220.3359375 C-168.5198056 219.7626622 -168.52789246 219.1893869 -168.53622437 218.59873962 C-168.62252736 212.61223816 -168.72204121 206.62605804 -168.82910156 200.63989258 C-168.86729758 198.4081768 -168.90216656 196.17640143 -168.93359375 193.94458008 C-168.97944804 190.72976436 -169.03740912 187.51535558 -169.09765625 184.30078125 C-169.10920746 183.30884262 -169.12075867 182.31690399 -169.13265991 181.29490662 C-169.26709023 172.03139753 -169.26709023 172.03139753 -173.44921875 164.0234375 C-177.77985985 160.48018569 -180.68992578 160.04352585 -186.1015625 160.02734375 C-187.62305075 160.00218638 -189.14453504 159.97678832 -190.66601562 159.95117188 C-193.06012977 159.92242186 -195.45417518 159.89839866 -197.84838867 159.87963867 C-200.1623056 159.85796877 -202.47542273 159.8185334 -204.7890625 159.77734375 C-205.50271469 159.77722794 -206.21636688 159.77711212 -206.9516449 159.7769928 C-210.03651352 159.71564328 -212.21014723 159.50292288 -214.93188477 157.99584961 C-218.47586686 154.27223127 -217.84907912 149.23567627 -217.7734375 144.40625 C-217.38493569 139.84860196 -216.35898664 136.90434351 -213.51171875 133.3359375 C-211.55786133 131.77197266 -211.55786133 131.77197266 -209.21875 130.1875 C-208.32446289 129.5783374 -207.43017578 128.9691748 -206.50878906 128.34155273 C-205.51975586 127.67969971 -204.53072266 127.01784668 -203.51171875 126.3359375 C-202.45823242 125.62703369 -201.40474609 124.91812988 -200.31933594 124.18774414 C-196.74510938 121.78836793 -193.15983827 119.40573886 -189.57421875 117.0234375 C-188.24910384 116.14172532 -186.92407281 115.25988708 -185.59912109 114.37792969 C-182.88917262 112.57419838 -180.17885871 110.77101828 -177.46826172 108.96826172 C-172.07748905 105.38245357 -166.69091944 101.79034719 -161.30444336 98.1980896 C-158.54170893 96.35571054 -155.77864762 94.51382183 -153.015625 92.671875 C-151.94199707 91.95612305 -150.86836914 91.24037109 -149.76220703 90.50292969 C-104.93359375 60.6171875 -104.93359375 60.6171875 -102.14111328 58.75561523 C-100.15240724 57.429755 -98.16380713 56.10373588 -96.17529297 54.77758789 C-90.77676525 51.17760445 -85.37648006 47.58031089 -79.97265625 43.98828125 C-78.3798584 42.92867187 -78.3798584 42.92867187 -76.75488281 41.84765625 C-74.73924912 40.50684636 -72.72301411 39.16693979 -70.70605469 37.828125 C-65.30908194 34.23639184 -59.96691011 30.5785562 -54.66503906 26.84790039 C-50.68922691 24.05626721 -46.63961527 21.38140244 -42.58251953 18.70996094 C-40.01712443 17.00776291 -37.4668494 15.28354652 -34.9140625 13.5625 C-32.86363369 12.19478398 -30.8128487 10.82760181 -28.76171875 9.4609375 C-27.77921143 8.79384766 -26.7967041 8.12675781 -25.78442383 7.43945312 C-24.8333374 6.80974609 -23.88225098 6.18003906 -22.90234375 5.53125 C-22.05704102 4.96422363 -21.21173828 4.39719727 -20.34082031 3.81298828 C-13.77223833 0.38358536 -7.25468959 0.01929938 0 0 Z " fill="#69A644" transform="translate(599.51171875,183.6640625)"/>
<path d="M0 0 C1.92449226 -0.00430527 1.92449226 -0.00430527 3.88786316 -0.00869751 C6.58819579 -0.01308689 9.28822807 -0.00680398 11.98852539 0.00732422 C15.40725478 0.02436259 18.82527443 0.01458787 22.24397755 -0.00339317 C25.55853785 -0.01700379 28.87291972 -0.00739847 32.1875 0 C33.39316116 -0.00607269 34.59882233 -0.01214539 35.84101868 -0.0184021 C52.46878683 0.11660475 69.20667729 3.80377593 82.29296875 14.3984375 C83.15019531 15.09195313 84.00742187 15.78546875 84.890625 16.5 C95.89770807 25.89669535 104.51154093 38.98672729 107.29296875 53.3984375 C107.58448784 57.33876557 107.57575711 61.26825816 107.56712341 65.21800232 C107.57236009 66.40509153 107.57759677 67.59218074 107.58299214 68.81524235 C107.59537282 72.09783467 107.59883637 75.38029393 107.59839523 78.6629051 C107.60004791 82.20847158 107.61312311 85.75399948 107.62458801 89.29954529 C107.64740549 97.04789132 107.65535562 104.79620991 107.66041446 112.54458499 C107.66367628 117.38863007 107.67020182 122.23266724 107.67741585 127.07670784 C107.69698015 140.50466245 107.71338448 153.93260972 107.71629238 167.36057949 C107.71647995 168.21935114 107.71666752 169.07812278 107.71686077 169.96291781 C107.71722701 171.70366514 107.71759071 173.44441247 107.71795189 175.18515979 C107.7181347 176.04920111 107.71831751 176.91324242 107.71850586 177.8034668 C107.71877668 179.10112285 107.71877668 179.10112285 107.71905298 180.42499418 C107.72259075 194.42677213 107.74958904 208.42839592 107.78700375 222.43012046 C107.8251638 236.82678553 107.84445043 251.22337429 107.84475189 265.62009102 C107.84533485 273.6946391 107.85372172 281.76900342 107.88274956 289.84350395 C107.90736706 296.72260443 107.91447717 303.60145417 107.89950203 310.48058688 C107.89237426 313.98448727 107.89300882 317.48789362 107.91591263 320.99173737 C108.0483516 345.54804569 104.92446099 363.78631088 87.44140625 382.25390625 C71.9754148 397.69177772 53.40914056 403.7055306 31.9284668 403.68896484 C30.37552062 403.69495616 28.82257741 403.70176309 27.26963806 403.70932007 C23.07168105 403.72691385 18.87380567 403.7316723 14.67581534 403.73295164 C12.05253809 403.73437617 9.42928142 403.7386512 6.80600929 403.74394608 C-2.34621875 403.76241579 -11.4983887 403.77061945 -20.65063477 403.76904297 C-29.18390243 403.76783845 -37.71691845 403.78900922 -46.25012237 403.8205303 C-53.58106754 403.84664639 -60.91193017 403.85741242 -68.24292153 403.85613215 C-72.6198404 403.85562166 -76.99653483 403.86135402 -81.37340736 403.88248825 C-85.48328911 403.90179526 -89.59273026 403.9020474 -93.70262718 403.88745499 C-95.21234655 403.88535721 -96.72209301 403.89012515 -98.23176575 403.9021759 C-100.28897107 403.9175376 -102.34463919 403.90838402 -104.40180969 403.89291382 C-105.5538001 403.89400335 -106.7057905 403.89509289 -107.8926897 403.89621544 C-110.70703125 403.3984375 -110.70703125 403.3984375 -112.5776701 401.59018898 C-114.22636854 398.39055948 -114.09298366 395.93633458 -113.70703125 392.3984375 C-112.55742645 390.70767307 -112.55742645 390.70767307 -110.70703125 389.3984375 C-108.02600861 389.01926327 -108.02600861 389.01926327 -104.72570801 389.01316833 C-103.47535767 389.00352051 -102.22500732 388.99387268 -100.93676758 388.9839325 C-99.548339 388.98829651 -98.15991125 388.99292899 -96.77148438 388.99780273 C-95.31107012 388.99206108 -93.85066061 388.98497867 -92.39025879 388.97665405 C-89.24235133 388.96152386 -86.09461365 388.9557682 -82.94667053 388.95718193 C-77.96138084 388.95921523 -72.97631895 388.93964781 -67.99108887 388.91700745 C-58.29646426 388.87598831 -48.60185736 388.85743194 -38.90716553 388.84083557 C-26.59637657 388.81850367 -14.28564049 388.78474755 -1.97493696 388.73363644 C2.97202686 388.71380346 7.91887228 388.70414058 12.86587429 388.70268428 C15.95842928 388.69991536 19.05092004 388.68904384 22.14344788 388.67617416 C23.56754963 388.67192802 24.99166623 388.67101153 26.41577148 388.67384911 C44.86509331 388.70636437 61.11650756 384.97976597 75.29296875 372.3984375 C86.76475695 360.58748339 92.77242558 345.94280143 92.6806488 329.65312195 C92.68603434 328.4982536 92.69141988 327.34338524 92.69696862 326.15352088 C92.70874676 322.97026502 92.70720207 319.78734785 92.6998018 316.60408938 C92.69505381 313.16224377 92.70759443 309.72045321 92.71781921 306.27862549 C92.73498151 299.54405136 92.73585247 292.80957065 92.73060631 286.07498034 C92.72655809 280.59807617 92.7280159 275.12119951 92.73335457 269.64429665 C92.73410299 268.8635535 92.73485141 268.08281035 92.73562251 267.27840832 C92.73715406 265.6920999 92.73869241 264.10579148 92.74023748 262.51948307 C92.75395357 247.65573747 92.74853142 232.79204456 92.73705227 217.92830018 C92.72712383 204.34752134 92.74005538 190.76687882 92.76398646 177.18612101 C92.78840429 163.22333075 92.79797856 149.26060391 92.79133373 135.29779273 C92.78784708 127.46600716 92.79003671 119.63432636 92.80758476 111.80255699 C92.8223405 105.13457214 92.82289851 98.46676581 92.80551385 91.79878434 C92.79702828 88.40067818 92.79697982 85.00315082 92.81016541 81.60502052 C92.82340048 77.91128385 92.81180382 74.21840437 92.79417419 70.52470398 C92.8085817 68.93463619 92.8085817 68.93463619 92.82328027 67.31244582 C92.70986006 55.70792487 88.85198276 45.88174743 82.29296875 36.3984375 C81.63361328 35.44324219 81.63361328 35.44324219 80.9609375 34.46875 C74.58273296 26.19730319 64.88555487 21.85242329 55.29296875 18.3984375 C54.51695312 18.05425781 53.7409375 17.71007812 52.94140625 17.35546875 C42.75256662 13.67366092 30.57239994 15.06135376 19.92553711 14.9934082 C17.38763821 14.97183598 14.84981355 14.93774299 12.31225586 14.89086914 C8.62450441 14.82350529 4.93828183 14.79635059 1.25 14.77734375 C0.13083694 14.74951309 -0.98832611 14.72168243 -2.1414032 14.69300842 C-13.31537042 14.72177703 -21.65528485 19.70947756 -30.64453125 25.8984375 C-31.91767607 26.76605464 -33.19113248 27.63321467 -34.46484375 28.5 C-35.47853027 29.19464355 -35.47853027 29.19464355 -36.51269531 29.90332031 C-40.6584013 32.72800917 -44.84241022 35.49552109 -49.01953125 38.2734375 C-50.82827504 39.47894158 -52.6368692 40.6846702 -54.4453125 41.890625 C-118.5390625 84.61979167 -182.6328125 127.34895833 -246.7265625 170.078125 C-247.49484375 170.59052734 -248.263125 171.10292969 -249.0546875 171.63085938 C-251.00442817 172.9302079 -252.95508242 174.22818581 -254.90625 175.52539062 C-264.74311632 182.06848433 -274.53725405 188.67399662 -284.32687378 195.2875061 C-301.68394545 207.01108995 -319.07560707 218.6806183 -336.51608276 230.2796936 C-344.17513124 235.37356852 -351.82764118 240.47724553 -359.48049927 245.58041382 C-363.86232937 248.50225941 -368.24455642 251.42350959 -372.62672424 254.34484863 C-375.90754241 256.53201234 -379.18827709 258.71930091 -382.46875 260.90698242 C-388.30824825 264.80099551 -394.14896294 268.69315547 -399.99291992 272.58047485 C-420.22693629 286.04070204 -440.41587026 299.56550627 -460.54980469 313.17504883 C-474.55990064 322.64278016 -488.62403481 332.02784623 -502.70703125 341.38671875 C-511.81701038 347.44135924 -520.90604685 353.5253374 -529.96484375 359.65625 C-530.77628845 360.20530502 -531.58773315 360.75436005 -532.42376709 361.3200531 C-536.46390979 364.05436129 -540.50255447 366.79084668 -544.5390625 369.53051758 C-551.5582645 374.28957461 -558.59074978 379.02732651 -565.69921875 383.65234375 C-566.28148224 384.03527084 -566.86374573 384.41819794 -567.46365356 384.81272888 C-571.47245889 387.3984375 -571.47245889 387.3984375 -573.70703125 387.3984375 C-573.70703125 388.0584375 -573.70703125 388.7184375 -573.70703125 389.3984375 C-572.72635555 389.39567212 -571.74567986 389.39290674 -570.73528671 389.39005756 C-546.89166392 389.32350824 -523.04805314 389.27418369 -499.20435715 389.24300098 C-487.67380221 389.2275211 -476.14330857 389.20641015 -464.61279297 389.17211914 C-454.56475479 389.14225112 -444.516761 389.12287066 -434.46867967 389.11617202 C-429.14652149 389.11225536 -423.82449029 389.10302737 -418.50237274 389.08124733 C-413.4955803 389.06092324 -408.48896746 389.05459544 -403.48213768 389.05911446 C-401.64226748 389.05828743 -399.80239143 389.05229757 -397.96255684 389.04082108 C-395.45453155 389.02594066 -392.94718834 389.02946743 -390.43914795 389.03767395 C-389.70762819 389.02893543 -388.97610843 389.0201969 -388.22242141 389.01119357 C-385.14880511 389.03846129 -382.98850113 389.24832405 -380.25502396 390.70614147 C-378.70703125 392.3984375 -378.70703125 392.3984375 -378.20703125 395.8359375 C-378.70703125 399.3984375 -378.70703125 399.3984375 -380.22390842 401.58934784 C-383.68484212 404.11082575 -386.81537873 403.95336613 -390.93699646 403.90637207 C-392.19252362 403.91573201 -392.19252362 403.91573201 -393.47341496 403.92528105 C-396.28261066 403.94125619 -399.0909441 403.92858922 -401.90014648 403.91601562 C-403.91230781 403.92143478 -405.92446517 403.92855627 -407.93661499 403.93725586 C-413.40564632 403.95551785 -418.8743764 403.94840943 -424.34341311 403.93573952 C-430.06261439 403.92562538 -435.78178955 403.93500091 -441.50099182 403.94128418 C-451.1072351 403.94856579 -460.71335545 403.93895997 -470.31958008 403.91992188 C-481.4293365 403.89815841 -492.53879925 403.90519872 -503.64854854 403.9272275 C-513.18156272 403.94537419 -522.71448844 403.94794318 -532.24751431 403.93747282 C-537.94355112 403.9312331 -543.63944986 403.93041535 -549.33547783 403.94361877 C-554.69124865 403.95516573 -560.0466406 403.94717241 -565.40237045 403.92404175 C-567.36919971 403.91874825 -569.33606079 403.92027935 -571.30287743 403.92909241 C-573.98571091 403.94000629 -576.66732673 403.92633478 -579.3500824 403.90637207 C-580.52060997 403.9197564 -580.52060997 403.9197564 -581.71478456 403.93341112 C-585.37670146 403.88047565 -587.53646753 403.5032549 -590.68344212 401.56932831 C-593.48015861 398.56903244 -593.439594 396.57759833 -593.45703125 392.5234375 C-593.493125 391.32976562 -593.52921875 390.13609375 -593.56640625 388.90625 C-592.35195437 383.94907824 -589.76282319 382.26095192 -585.70703125 379.3984375 C-585.05718262 378.92712402 -584.40733398 378.45581055 -583.73779297 377.97021484 C-581.60290507 376.45455244 -579.44169376 374.98514455 -577.26953125 373.5234375 C-576.45460205 372.97026855 -575.63967285 372.41709961 -574.80004883 371.84716797 C-567.17141893 366.68121133 -559.49738708 361.58273524 -551.82446289 356.48291016 C-545.08684137 352.00043631 -538.38497445 347.46927148 -531.70703125 342.8984375 C-521.04675093 335.60344048 -510.30489093 328.43399842 -499.54589844 321.28564453 C-494.59611421 317.9951533 -489.65194031 314.69624844 -484.70703125 311.3984375 C-482.79299391 310.12235809 -480.87893117 308.84631678 -478.96484375 307.5703125 C-477.97387695 306.90966797 -476.98291016 306.24902344 -475.96191406 305.56835938 C-355.4609375 225.234375 -355.4609375 225.234375 -352.46923828 223.23999023 C-350.50006263 221.92715214 -348.53098737 220.61416344 -346.56201172 219.30102539 C-341.59316767 215.98750404 -336.62251354 212.67675682 -331.6484375 209.37109375 C-323.16480004 203.72967976 -314.68546915 198.0860561 -306.28833008 192.31640625 C-294.92089931 184.50673781 -283.41960372 176.91019438 -271.89453125 169.3359375 C-247.78650819 153.4905673 -223.75863745 137.53413428 -199.89004517 121.33004761 C-186.54854596 112.2727466 -173.1372581 103.32361385 -159.70703125 94.3984375 C-155.35189047 91.50406688 -150.99794532 88.60790464 -146.64453125 85.7109375 C-145.68748291 85.07567139 -144.73043457 84.44040527 -143.74438477 83.78588867 C-139.3856235 80.88531715 -135.05412266 77.95620123 -130.7734375 74.94140625 C-126.34549044 71.82620918 -121.85545829 68.81597387 -117.34472656 65.82226562 C-112.80216684 62.80207552 -108.28290733 59.74735953 -103.76171875 56.6953125 C-102.86012024 56.08683472 -101.95852173 55.47835693 -101.02960205 54.85144043 C-97.27852288 52.31957508 -93.52782539 49.78714493 -89.77734375 47.25439453 C-87.00160224 45.38008868 -84.22552343 43.50628405 -81.44921875 41.6328125 C-80.54017288 41.01929428 -79.63112701 40.40577606 -78.6945343 39.77366638 C-72.89216912 35.86130611 -67.07219122 31.97648261 -61.2421875 28.10546875 C-55.8522842 24.52567634 -50.50806161 20.89142666 -45.2109375 17.17578125 C-43.47127236 15.96324632 -41.73097091 14.7516303 -39.99047852 13.5402832 C-38.82718802 12.72619439 -37.6674312 11.9070363 -36.51098633 11.08325195 C-34.77502526 9.84925553 -33.02590011 8.63618762 -31.2734375 7.42578125 C-30.27256104 6.72187256 -29.27168457 6.01796387 -28.24047852 5.29272461 C-19.54698037 0.13874582 -9.8294061 -0.04926079 0 0 Z " fill="#404244" transform="translate(592.70703125,144.6015625)"/>
<path d="M0 0 C0.99717041 -0.00700928 1.99434082 -0.01401855 3.02172852 -0.02124023 C6.32018834 -0.03885475 9.6177911 -0.02718387 12.91625977 -0.01367188 C15.20785181 -0.016366 17.49944275 -0.02024775 19.79103088 -0.02526855 C24.59533566 -0.03116849 29.39934306 -0.0225852 34.20361328 -0.00390625 C40.36203689 0.01887034 46.51976273 0.00577097 52.67816067 -0.01819611 C57.41108963 -0.03265145 62.14385324 -0.02804899 66.87678719 -0.01768494 C69.1473912 -0.01501627 71.41801023 -0.01829228 73.68859673 -0.02760315 C76.86311459 -0.03776256 80.03650369 -0.02227448 83.2109375 0 C84.14980301 -0.00809692 85.08866852 -0.01619385 86.0559845 -0.02453613 C90.14206686 0.02857606 92.61549162 0.21626173 96.25714111 2.19451904 C98.6367487 5.08416727 98.77888253 6.48960497 98.73779297 10.20410156 C98.73741531 11.3449823 98.73703766 12.48586304 98.73664856 13.66131592 C98.71084213 14.8874762 98.68503571 16.11363647 98.65844727 17.37695312 C98.64783516 19.26622528 98.64783516 19.26622528 98.63700867 21.19366455 C98.61376478 24.53493168 98.56888413 27.87448136 98.51348877 31.215271 C98.46224811 34.62708728 98.43948458 38.03908133 98.41430664 41.45117188 C98.35916042 48.14044794 98.27547336 54.8289139 98.17016602 61.51757812 C98.86285583 61.50869568 99.55554565 61.49981323 100.26922607 61.49066162 C107.47147377 61.4022443 114.67356759 61.3418668 121.8762207 61.29785156 C124.56521068 61.27997912 127.25382428 61.25213338 129.94262695 61.21582031 C133.80504162 61.16736197 137.6668781 61.14462186 141.52954102 61.12695312 C142.73382751 61.10630798 143.93811401 61.08566284 145.17889404 61.06439209 C146.29975403 61.06408997 147.42061401 61.06378784 148.57543945 61.06347656 C149.56139099 61.05459412 150.54734253 61.04571167 151.56317139 61.03656006 C154.17016602 61.51757812 154.17016602 61.51757812 156.48847961 62.97076416 C159.01331717 66.79448037 158.7213718 70.23072441 158.671875 74.72070312 C158.67997948 76.11645569 158.67997948 76.11645569 158.68824768 77.54040527 C158.7007558 80.61645303 158.68422983 83.69156865 158.66625977 86.76757812 C158.6664147 88.9046229 158.66790284 91.04166795 158.67066956 93.17871094 C158.67205449 97.65767843 158.65947951 102.13632607 158.63671875 106.61523438 C158.60833408 112.35890838 158.6110703 118.10205082 158.62380886 123.84576416 C158.630761 128.25867256 158.62298203 132.6714579 158.61055183 137.08435059 C158.60603283 139.20226571 158.60570444 141.32019402 158.60961723 143.43811035 C158.61252485 146.39716712 158.59604366 149.35548915 158.57421875 152.31445312 C158.58097122 153.62996155 158.58097122 153.62996155 158.58786011 154.9720459 C158.54484746 158.47865888 158.48191119 160.89759082 156.89100647 164.06152344 C154.51042344 166.0758061 152.24151628 166.00202745 149.20532227 166.04882812 C147.17016602 165.51757812 147.17016602 165.51757812 143.17016602 161.51757812 C143.17016602 133.46757812 143.17016602 105.41757812 143.17016602 76.51757812 C78.16016602 76.51757812 13.15016602 76.51757812 -53.82983398 76.51757812 C-53.6714973 110.51904757 -53.6714973 110.51904757 -53.46948242 144.52026367 C-53.45141602 151.09924316 -53.45141602 151.09924316 -53.44805908 154.18000793 C-53.44192023 156.32982189 -53.42785901 158.47962214 -53.40753174 160.62934875 C-53.37826588 163.88750097 -53.37420941 167.14481227 -53.37573242 170.40307617 C-53.36133999 171.35939532 -53.34694756 172.31571447 -53.33211899 173.30101299 C-53.35851573 177.51744399 -53.47385828 179.90913029 -55.63946533 183.610672 C-57.82983398 185.51757812 -57.82983398 185.51757812 -61.32983398 186.14257812 C-64.82983398 185.51757812 -64.82983398 185.51757812 -67.02020264 183.43281555 C-69.29107334 179.77454157 -69.31356803 177.53808118 -69.28393555 173.2487793 C-69.28451965 172.53603851 -69.28510376 171.82329773 -69.28570557 171.08895874 C-69.28293068 168.74565006 -69.25186952 166.40363183 -69.22045898 164.06054688 C-69.21299441 162.43102208 -69.2073025 160.80148829 -69.20330811 159.17195129 C-69.18806865 154.89245625 -69.14880189 150.61350814 -69.10449219 146.33422852 C-69.05629036 141.1947688 -69.03799738 136.05512574 -69.01467896 130.91550446 C-68.97594928 123.11581581 -68.89928512 115.31732617 -68.82983398 107.51757812 C-86.97983398 107.51757812 -105.12983398 107.51757812 -123.82983398 107.51757812 C-123.75071749 124.45074752 -123.75071749 124.45074752 -123.6496582 141.38378906 C-123.64381702 143.50650838 -123.63872057 145.62922993 -123.63452148 147.75195312 C-123.62428955 148.8542627 -123.61405762 149.95657227 -123.60351562 151.09228516 C-123.60327393 152.14754395 -123.60303223 153.20280273 -123.6027832 154.29003906 C-123.59834198 155.20493103 -123.59390076 156.119823 -123.58932495 157.06243896 C-123.85006431 159.72409123 -124.37292191 161.28463405 -125.82983398 163.51757812 C-129.32107415 165.84507157 -130.72205649 166.02057129 -134.82983398 165.51757812 C-137.70242814 163.3563904 -138.71840288 162.16865643 -139.33103943 158.58909607 C-139.3312056 157.45230911 -139.33137177 156.31552216 -139.33154297 155.14428711 C-139.34092392 153.85292343 -139.35030487 152.56155975 -139.35997009 151.23106384 C-139.34949288 149.82525977 -139.33812402 148.41946209 -139.32592773 147.01367188 C-139.32608274 145.5692589 -139.32757195 144.12484551 -139.33033752 142.68043518 C-139.33172081 139.65664229 -139.31917462 136.63332414 -139.29638672 133.60961914 C-139.26797615 129.73335869 -139.27074689 125.85788537 -139.28347683 121.98156643 C-139.29043004 119.00040458 -139.28264939 116.01942481 -139.2702198 113.03828621 C-139.26570356 111.60894532 -139.26537003 110.1795849 -139.2692852 108.75024223 C-139.2721942 106.75395361 -139.25354193 104.75766859 -139.23388672 102.76147461 C-139.22848373 101.62548325 -139.22308075 100.48949188 -139.21751404 99.31907654 C-138.82983398 96.51757812 -138.82983398 96.51757812 -137.71026611 94.64862061 C-134.90028185 92.95847103 -132.60123648 93.15863965 -129.33886719 93.17700195 C-128.68493988 93.17656387 -128.03101257 93.17612579 -127.35726929 93.17567444 C-125.19807975 93.17776274 -123.03966893 93.20109424 -120.88061523 93.22460938 C-119.38275069 93.23020522 -117.88488066 93.23447537 -116.38700867 93.23747253 C-112.44624652 93.24892233 -108.50581653 93.27839035 -104.56518555 93.31158447 C-100.54342136 93.34228264 -96.52160346 93.35597731 -92.49975586 93.37109375 C-84.60962954 93.4032602 -76.71977309 93.45445785 -68.82983398 93.51757812 C-68.85601807 92.72585205 -68.88220215 91.93412598 -68.90917969 91.1184082 C-69.01327521 87.52250095 -69.07820299 83.92691081 -69.14233398 80.33007812 C-69.18422852 79.08419922 -69.22612305 77.83832031 -69.26928711 76.5546875 C-69.28540039 75.35263672 -69.30151367 74.15058594 -69.31811523 72.91210938 C-69.34429932 71.80714111 -69.3704834 70.70217285 -69.39746094 69.5637207 C-68.82983398 66.51757812 -68.82983398 66.51757812 -67.17817688 63.65339661 C-61.74838807 60.18987939 -56.03993206 60.86478791 -49.76806641 60.94995117 C-48.31907195 60.95136217 -46.87007392 60.95056864 -45.42108154 60.94773865 C-41.49350281 60.94630508 -37.56668884 60.97568429 -33.63928771 61.01060843 C-29.53270208 61.04188233 -25.42609857 61.04480347 -21.31941223 61.05073547 C-13.54560498 61.06627094 -5.77214965 61.10729519 2.00150269 61.15748292 C10.85267011 61.21338579 19.70385441 61.24086523 28.55515444 61.2659601 C46.76039831 61.31821157 64.96515979 61.40989933 83.17016602 61.51757812 C83.17016602 46.33757812 83.17016602 31.15757812 83.17016602 15.51757812 C56.11016602 15.51757812 29.05016602 15.51757812 1.17016602 15.51757812 C1.17016602 27.06757813 1.17016602 38.61757813 1.17016602 50.51757812 C-3.82983398 55.51757812 -3.82983398 55.51757812 -6.89233398 56.14257812 C-9.82983398 55.51757812 -9.82983398 55.51757812 -11.98022461 53.62915039 C-14.64634528 49.14397247 -14.40399131 45.23620794 -14.36108398 40.10742188 C-14.36682434 38.60073692 -14.36682434 38.60073692 -14.37268066 37.06361389 C-14.37539757 34.94466141 -14.36805193 32.82567526 -14.35131836 30.70678711 C-14.32988381 27.46261984 -14.35113973 24.22066155 -14.37670898 20.9765625 C-14.37406611 18.91601074 -14.36894197 16.85546035 -14.36108398 14.79492188 C-14.36918091 13.82505844 -14.37727783 12.85519501 -14.38562012 11.85594177 C-14.37301147 10.95142776 -14.36040283 10.04691376 -14.34741211 9.11499023 C-14.34422974 8.32176865 -14.34104736 7.52854706 -14.33776855 6.71128845 C-12.60835204 -0.75786031 -6.28835482 -0.05411509 0 0 Z " fill="#414345" transform="translate(309.829833984375,362.482421875)"/>
<path d="M0 0 C2.5 1.5 2.5 1.5 4 4 C4.48261011 8.90653612 4.48261011 8.90653612 3 12 C1.03239441 13.70549011 1.03239441 13.70549011 -1.45629883 15.34448242 C-2.36110992 15.94859955 -3.26592102 16.55271667 -4.19815063 17.17514038 C-5.12276093 17.77734406 -6.04737122 18.37954773 -7 19 C-7.82285492 19.54991608 -8.64570984 20.09983215 -9.49349976 20.66641235 C-12.01226821 22.34885339 -14.54182015 24.01393573 -17.07421875 25.67578125 C-18.00112015 26.28584518 -18.92802155 26.89590912 -19.88301086 27.52445984 C-22.81694113 29.45517812 -25.75214896 31.38394263 -28.6875 33.3125 C-32.54600918 35.84959752 -36.40399341 38.38749207 -40.26171875 40.92578125 C-41.19490936 41.53970734 -42.12809998 42.15363342 -43.08956909 42.78616333 C-50.74703104 47.82677244 -58.37910138 52.90434618 -66 58 C-68.01021637 59.34014425 -70.02062554 60.67999934 -72.03125 62.01953125 C-75.70757937 64.47021353 -79.3822611 66.92333716 -83.0553894 69.3788147 C-101.89072702 81.96902663 -120.78291942 94.47114458 -139.70898438 106.92456055 C-149.82799395 113.58381617 -159.9295515 120.2675356 -170 127 C-172.98256098 128.98905107 -175.96573746 130.97717344 -178.94921875 132.96484375 C-181.05757952 134.37131745 -183.16424423 135.78033574 -185.26953125 137.19140625 C-194.03359009 143.06036044 -202.850841 148.84536536 -211.7043457 154.57861328 C-217.85917911 158.570062 -217.85917911 158.570062 -223.89453125 162.73828125 C-225.43173828 163.82689453 -225.43173828 163.82689453 -227 164.9375 C-227.825 165.54464844 -228.65 166.15179688 -229.5 166.77734375 C-232.80498645 168.39368869 -235.36867221 168.27867332 -239 168 C-240.9375 167 -240.9375 167 -242 165 C-243.13803905 160.20397828 -243.13803905 160.20397828 -242 157 C-240.22021484 155.29907227 -240.22021484 155.29907227 -237.7109375 153.56640625 C-236.70756348 152.87023193 -235.70418945 152.17405762 -234.67041016 151.45678711 C-233.44849652 150.63553757 -232.22488824 149.8168063 -231 149 C-230.29977722 148.53111359 -229.59955444 148.06222717 -228.87811279 147.57913208 C-223.80017251 144.18733343 -218.69872298 140.83201476 -213.59057617 137.4859314 C-208.70752359 134.28692341 -203.83046674 131.07879935 -198.953125 127.87109375 C-197.95966064 127.21794693 -196.96619629 126.56480011 -195.94262695 125.89186096 C-185.76774268 119.19804565 -175.62946872 112.449781 -165.5 105.6875 C-164.69542358 105.15046448 -163.89084717 104.61342896 -163.06188965 104.06011963 C-159.33782147 101.57411674 -155.61431979 99.08726796 -151.89135742 96.59960938 C-146.59705791 93.06217455 -141.2985902 89.53100422 -136 86 C-134.03513106 84.69014195 -132.0702876 83.38024568 -130.10546875 82.0703125 C-92.93359375 57.2890625 -92.93359375 57.2890625 -90.78491211 55.85668945 C-89.27911573 54.85277006 -87.77342226 53.84869631 -86.26782227 52.84448242 C-82.19132131 50.12583178 -78.11294519 47.41006553 -74.03125 44.69921875 C-64.0225855 38.04600205 -54.0387325 31.35774697 -44.078125 24.6328125 C-43.1146666 23.98241501 -42.15120819 23.33201752 -41.15855408 22.66191101 C-36.27497112 19.36462437 -31.39267779 16.06544647 -26.51196289 12.76391602 C-24.69158865 11.53398786 -22.87119558 10.30408757 -21.05078125 9.07421875 C-20.21214539 8.50611481 -19.37350952 7.93801086 -18.50946045 7.35269165 C-6.41145484 -0.81600334 -6.41145484 -0.81600334 0 0 Z " fill="#434547" transform="translate(569,104)"/>
<path d="M0 0 C0.79148438 -0.01417969 1.58296875 -0.02835937 2.3984375 -0.04296875 C4.625 0.1875 4.625 0.1875 7.625 2.1875 C8.16199075 5.4094445 8.39725134 7.1215469 7.625 10.1875 C5.73066808 12.79059556 3.27696489 14.40148283 0.625 16.1875 C-0.23609375 16.78046875 -1.0971875 17.3734375 -1.984375 17.984375 C-4.52938736 19.70397795 -7.09184232 21.39305924 -9.66552734 23.06933594 C-12.68704741 25.04570867 -15.68557488 27.05654615 -18.6875 29.0625 C-19.97646205 29.92202566 -21.26552513 30.78139982 -22.5546875 31.640625 C-23.19374023 32.06666016 -23.83279297 32.49269531 -24.49121094 32.93164062 C-167.27539063 128.12109375 -167.27539063 128.12109375 -169.79737854 129.80239868 C-171.45718347 130.90894881 -173.11696354 132.01553624 -174.77671814 133.12216187 C-179.19438203 136.06752373 -183.61258224 139.01207718 -188.03149414 141.95556641 C-188.9696698 142.58064087 -189.90784546 143.20571533 -190.87445068 143.84973145 C-192.66314856 145.04146101 -194.45199684 146.23296489 -196.24102783 147.42419434 C-202.33818317 151.48696137 -208.41050254 155.58468265 -214.46484375 159.7109375 C-217.75388607 161.37974018 -219.73596886 161.65337881 -223.375 161.1875 C-225.8982565 158.6642435 -225.84651535 157.45085038 -226.0625 153.9375 C-226.14886719 153.00421875 -226.23523438 152.0709375 -226.32421875 151.109375 C-224.73973674 146.23203944 -220.62171499 144.75749535 -216.375 142.1875 C-213.72634034 140.45987043 -211.10293997 138.69485277 -208.4765625 136.93359375 C-206.95094742 135.91745028 -205.4249741 134.90184449 -203.89868164 133.88671875 C-202.26575983 132.79952112 -200.63286672 131.71228037 -199 130.625 C-198.1630661 130.06780273 -197.3261322 129.51060547 -196.46383667 128.93652344 C-186.22332939 122.11651421 -176.00058443 115.27124317 -165.80859375 108.37890625 C-164.8554126 107.73457138 -163.90223145 107.09023651 -162.92016602 106.42637634 C-158.30879483 103.30835347 -153.69979968 100.18690037 -149.09423828 97.06030273 C-140.67464117 91.3558546 -132.22851559 85.73305349 -123.5528717 80.42333984 C-118.82099699 77.51990908 -114.36175187 74.33817702 -109.91015625 71.02734375 C-106.60233734 68.62675406 -103.16454979 66.47923583 -99.703125 64.30859375 C-92.60940238 59.78759448 -85.65110605 55.05705973 -78.65917969 50.38085938 C-75.10124801 48.00467307 -71.53932219 45.6345624 -67.9765625 43.265625 C-52.57397133 33.02104552 -37.20598496 22.72647537 -21.875 12.375 C-21.05088623 11.81904144 -20.22677246 11.26308289 -19.37768555 10.6902771 C-17.05301731 9.12160398 -14.72943306 7.5513403 -12.40625 5.98046875 C-11.70685303 5.50863159 -11.00745605 5.03679443 -10.28686523 4.55065918 C-3.60945162 0.02920268 -3.60945162 0.02920268 0 0 Z " fill="#414345" transform="translate(225.375,327.8125)"/>
<path d="M0 0 C1.26488754 -0.01268417 2.52977509 -0.02536835 3.83299255 -0.03843689 C5.21035933 -0.0363853 6.58772498 -0.03339716 7.96508789 -0.02954102 C9.38229116 -0.0341038 10.79949222 -0.03940966 12.21669006 -0.04542542 C15.18491614 -0.05435357 18.15287312 -0.05193723 21.12109375 -0.04199219 C24.91879483 -0.03050587 28.71556562 -0.05070891 32.51314449 -0.07990932 C35.43947722 -0.09828543 38.36558761 -0.09797611 41.29196358 -0.0922718 C42.69176094 -0.09211874 44.09157351 -0.09815075 45.49131584 -0.11056328 C47.45118966 -0.12549403 49.41121669 -0.11215541 51.37109375 -0.09765625 C52.484879 -0.09749008 53.59866425 -0.09732391 54.74620056 -0.09715271 C58.44818771 0.52050015 60.12434009 1.76358435 62.75024414 4.40405273 C63.37524414 7.34155273 63.37524414 7.34155273 62.75024414 10.40405273 C60.97998047 13.06494141 60.97998047 13.06494141 57.75024414 15.40405273 C53.64772934 16.10640753 49.60088368 15.9850598 45.44946289 15.89233398 C44.2579512 15.88525925 43.06643951 15.87818451 41.83882141 15.87089539 C38.03782042 15.84293459 34.238299 15.78018747 30.43774414 15.71655273 C27.85898939 15.69147229 25.28021152 15.66865869 22.70141602 15.64819336 C16.38333187 15.59735586 10.06844154 15.49949378 3.75024414 15.40405273 C4.08024414 25.30405273 4.41024414 35.20405273 4.75024414 45.40405273 C8.54621094 45.41863525 12.34217773 45.43321777 16.25317383 45.44824219 C28.77822573 45.49852089 41.30314791 45.56495291 53.82807541 45.63976765 C61.42386234 45.68474312 69.0196022 45.72415367 76.61547852 45.75048828 C83.23565384 45.77345427 89.85568042 45.80683643 96.47573781 45.85275429 C99.98139359 45.87670563 103.48690188 45.89542179 106.99263763 45.90166664 C110.90516841 45.90883122 114.81732929 45.93924961 118.72973633 45.97167969 C120.47545425 45.96952705 120.47545425 45.96952705 122.25643921 45.96733093 C123.32212128 45.97986908 124.38780334 45.99240723 125.48577881 46.00532532 C126.41125896 46.00993428 127.33673912 46.01454325 128.29026413 46.01929188 C131.25269241 46.48263973 132.63067662 47.29979794 134.75024414 49.40405273 C135.25024414 52.84155273 135.25024414 52.84155273 134.75024414 56.40405273 C132.6795153 59.11308303 131.49491775 60.26280188 128.11123562 60.90462399 C127.10115979 60.90483327 126.09108397 60.90504255 125.05039978 60.90525818 C123.88808334 60.91509232 122.72576691 60.92492645 121.52822876 60.93505859 C120.25692108 60.92539062 118.9856134 60.91572266 117.67578125 60.90576172 C116.32046447 60.90954561 114.96515155 60.91504623 113.60984802 60.9221344 C109.93215033 60.93609619 106.25492007 60.92491518 102.57724833 60.90842319 C98.7296008 60.89457513 94.88198047 60.90103237 91.03431702 60.90455627 C84.57390811 60.90725828 78.11368501 60.89378267 71.65332031 60.87060547 C64.1812417 60.84398443 56.70947355 60.84225217 49.23736376 60.85399383 C42.05161495 60.86476702 34.86597859 60.85858893 27.68023872 60.84443855 C24.62086903 60.83867585 21.56158154 60.8387636 18.50221062 60.84350395 C14.90126953 60.84827087 11.30066912 60.8381844 7.69979286 60.8165493 C5.74545547 60.80831669 3.79107348 60.81483758 1.83673096 60.82174683 C0.67723434 60.81184219 -0.48226227 60.80193756 -1.67689514 60.79173279 C-2.68659394 60.78930289 -3.69629274 60.786873 -4.73658848 60.78436947 C-7.24975586 60.40405273 -7.24975586 60.40405273 -9.07382965 59.02923679 C-10.75037485 56.71217428 -10.63753438 54.99623076 -10.65380859 52.15405273 C-10.66649277 51.0828418 -10.67917694 50.01163086 -10.69224548 48.90795898 C-10.68930984 47.75166992 -10.68637421 46.59538086 -10.68334961 45.40405273 C-10.68859146 44.21682617 -10.69383331 43.02959961 -10.69923401 41.80639648 C-10.70566144 39.2946857 -10.70430796 36.78294484 -10.69580078 34.27124023 C-10.68728919 30.41913517 -10.71604771 26.56851125 -10.74780273 22.71655273 C-10.74941468 20.27905318 -10.74883735 17.84155099 -10.74584961 15.40405273 C-10.75708359 14.24776367 -10.76831757 13.09147461 -10.77989197 11.90014648 C-10.77051102 10.82893555 -10.76113007 9.75772461 -10.75146484 8.65405273 C-10.75129868 7.71045898 -10.75113251 6.76686523 -10.7509613 5.79467773 C-10.24975586 3.40405273 -10.24975586 3.40405273 -8.60900879 1.60118103 C-5.58446637 0.06647262 -3.39033711 0.01645832 0 0 Z " fill="#3F4143" transform="translate(314.249755859375,487.595947265625)"/>
<path d="M0 0 C4.37622477 3.82571242 7.44589147 8.32481763 10.67358398 13.11767578 C12.70806851 16.12872991 14.79708037 19.03515773 17.0625 21.875 C19.38722497 25.62455641 19.65463558 27.66303929 19 32 C18 34.4375 18 34.4375 16 36 C11.15151515 37.05050505 11.15151515 37.05050505 8 36 C5.10985545 33.35910817 3.09008106 30.29238497 1 27 C0.23429687 25.82244141 0.23429687 25.82244141 -0.546875 24.62109375 C-1.729503 22.76410203 -2.87955243 20.89495049 -4 19 C-9.19791053 19.44553519 -12.40082918 21.33621202 -16.4375 24.4375 C-17.67945091 25.35754941 -18.92299246 26.27545483 -20.16796875 27.19140625 C-20.8026709 27.66078613 -21.43737305 28.13016602 -22.09130859 28.61376953 C-25.08626493 30.78892457 -28.16141693 32.83592341 -31.25 34.875 C-31.85328125 35.27436768 -32.4565625 35.67373535 -33.078125 36.08520508 C-34.35196595 36.92786675 -35.62623099 37.7698876 -36.90087891 38.61132812 C-40.92091516 41.27077988 -44.92803452 43.94965055 -48.9375 46.625 C-50.48823321 47.65892623 -52.0390102 48.69278678 -53.58984375 49.7265625 C-54.57778931 50.38519287 -54.57778931 50.38519287 -55.58569336 51.05712891 C-56.05241455 51.36827637 -56.51913574 51.67942383 -57 52 C-56.48741374 56.51564083 -54.78848635 58.83801752 -51.9375 62.3125 C-47.41173856 68.33330651 -47.41173856 68.33330651 -47.25 72.5 C-48 76 -48 76 -49.5625 78 C-53.09612991 79.44969432 -55.20833717 79.65373497 -59 79 C-63.95721336 74.66782659 -67.44906126 68.54853122 -70.875 63 C-71.37257812 62.23171875 -71.87015625 61.4634375 -72.3828125 60.671875 C-75.24998177 56.04029387 -77.09006082 52.59833707 -76 47 C-72.84217821 42.9793533 -68.93839365 40.49203242 -64.625 37.8125 C-63.36259607 37.01801477 -62.10089888 36.22240564 -60.83984375 35.42578125 C-59.87667236 34.81984131 -59.87667236 34.81984131 -58.89404297 34.20166016 C-55.96393472 32.34267681 -53.07286759 30.42748701 -50.1875 28.5 C-49.59582031 28.10498291 -49.00414062 27.70996582 -48.39453125 27.30297852 C-40.87422685 22.26555917 -33.39791599 17.16259757 -25.91870117 12.06445312 C-23.89019581 10.68217321 -21.86006337 9.30227729 -19.828125 7.92504883 C-18.00794788 6.68609022 -16.1948006 5.43670697 -14.390625 4.17456055 C-13.60429687 3.630979 -12.81796875 3.08739746 -12.0078125 2.52734375 C-11.33121582 2.05288818 -10.65461914 1.57843262 -9.95751953 1.08959961 C-6.36510406 -0.91002003 -4.03325352 -0.73942981 0 0 Z " fill="#404345" transform="translate(308,257)"/>
<path d="M0 0 C4.78875843 1.69015004 8.73261936 4.34896279 11 9 C11.78110874 13.59822505 11.59610127 17.55680746 9.8125 21.875 C6.93966278 25.24315398 3.6066534 28.68198829 -0.953125 29.23828125 C-6.52036011 29.4181749 -9.61411811 28.75932734 -14 25 C-17.74707226 20.72542727 -18.14074608 16.55947029 -18 11 C-16.40729056 6.22187167 -14.10647987 3.8429476 -10 1 C-6.79610447 -0.60194777 -3.48419843 -0.3516761 0 0 Z " fill="#FAFCF9" transform="translate(564,234)"/>
<path d="M0 0 C3.97179076 3.38770389 6.91083799 6.67087987 7.4375 11.9375 C6.98119782 17.59564708 5.1588352 21.84029617 1.0625 25.8125 C-3.98630507 27.53124215 -9.85642062 28.23372248 -14.81640625 25.8984375 C-19.42447916 22.31823048 -21.58886671 18.06069017 -22.3125 12.375 C-21.65776056 7.04355028 -19.79531181 3.56337254 -15.75 -0.125 C-10.53573838 -2.05200973 -5.15230477 -2.12812588 0 0 Z " fill="#F9FBF8" transform="translate(636.875,204.1875)"/>
<path d="M0 0 C3.4285785 2.02008139 6.20847086 4.41694171 8 8 C8.37155705 13.57335568 8.24782829 17.23651851 5 22 C1.62833366 25.05055526 -1.02588404 26.27403455 -5.5 26.5 C-9.97411596 26.27403455 -12.62833366 25.05055526 -16 22 C-18.910372 17.634442 -19.6506249 14.20499921 -19 9 C-14.80949421 0.92939626 -8.85438095 -1.74884352 0 0 Z " fill="#F9FBF8" transform="translate(604,236)"/>
<path d="M0 0 C2.93038162 1.2469709 4.41759241 2.22345655 6.3125 4.75 C7.6178024 9.02189878 7.58533828 12.64447976 5.8125 16.75 C2.79022645 20.50178785 0.33375077 21.80599989 -4.4375 22.5 C-9.71891867 21.75874826 -12.18098869 19.37262344 -15.4375 15.125 C-16.31927745 11.79384074 -15.81612906 9.32281116 -15 6 C-10.78732761 -0.25106226 -7.19021776 -0.69663009 0 0 Z " fill="#F9FBF8" transform="translate(601,203)"/>
</svg>
