<?xml version="1.0" encoding="UTF-8"?>
<svg version="1.1" xmlns="http://www.w3.org/2000/svg" width="512" height="512">
<path d="M0 0 C1.07290283 0.45729492 1.07290283 0.45729492 2.16748047 0.92382812 C27.38356784 11.73155639 50.70572697 28.04197348 70.21923828 47.25 C72.0158347 49.01556116 73.83252449 50.75841596 75.65234375 52.5 C83.54608859 60.13079744 90.48501419 68.1709347 97 77 C97.42764648 77.57218262 97.85529297 78.14436523 98.29589844 78.73388672 C104.81063161 87.47526791 110.58692842 96.54150125 116 106 C116.65613281 107.12277344 117.31226563 108.24554688 117.98828125 109.40234375 C149.35892052 165.29111791 154.05316247 232.87485449 137.70874023 294.04223633 C126.73157532 332.984653 105.95160767 367.91343565 78 397 C77.43265137 397.59458008 76.86530273 398.18916016 76.28076172 398.80175781 C67.74801684 407.69930679 58.92923769 415.69744094 49 423 C48.14390137 423.63929443 48.14390137 423.63929443 47.27050781 424.29150391 C-5.08436508 463.31404453 -71.78193484 479.83241326 -136.38769531 470.51123047 C-198.16513637 460.40170187 -258.13757707 428.03274202 -295.57421875 376.84765625 C-296.72366653 375.23711195 -297.86300355 373.61935858 -299 372 C-299.66 371.34 -300.32 370.68 -301 370 C-303.42931216 366.39542601 -305.69555532 362.68530053 -308 359 C-308.64582031 357.99195313 -309.29164063 356.98390625 -309.95703125 355.9453125 C-333.4817805 318.73259277 -345.33730322 275.80608318 -347 232 C-347.06380859 230.34677734 -347.06380859 230.34677734 -347.12890625 228.66015625 C-347.89598022 186.47108763 -336.84111285 145.04543303 -317 108 C-316.38769531 106.84628906 -315.77539062 105.69257813 -315.14453125 104.50390625 C-305.14405434 86.3380915 -292.27528409 69.98120473 -278 55 C-277.42830078 54.39961914 -276.85660156 53.79923828 -276.26757812 53.18066406 C-267.73949113 44.28997272 -258.92258247 36.29766441 -249 29 C-248.42926758 28.57380371 -247.85853516 28.14760742 -247.27050781 27.70849609 C-238.52761473 21.19200811 -229.46048759 15.41420979 -220 10 C-218.87722656 9.34386719 -217.75445312 8.68773438 -216.59765625 8.01171875 C-150.96063629 -28.83065803 -68.24822668 -29.85035221 0 0 Z " fill="#2D5528" transform="translate(357,31)"/>
<path d="M0 0 C7.77942373 5.9841721 12.5613155 14.26344831 14 24 C14.74390032 36.51755345 13.53650291 46.68801443 6 57 C5.41734375 57.82371094 4.8346875 58.64742188 4.234375 59.49609375 C1.63333611 62.41089432 -0.86853656 63.92077383 -4.3125 65.75 C-5.94638672 66.63945312 -5.94638672 66.63945312 -7.61328125 67.546875 C-16.96199628 71.55808837 -29.3820959 71.14023052 -39 68 C-48.49722044 63.79327323 -54.40295812 57.28290052 -58.375 47.75 C-62.37746333 37.09996714 -62.8488794 24.00648139 -58.3203125 13.4609375 C-53.15650579 3.83609067 -46.14106808 -2.63928674 -35.625 -5.875 C-23.05415337 -8.84214117 -10.90968153 -6.89773413 0 0 Z " fill="#FAFBFA" transform="translate(443,253)"/>
<path d="M0 0 C4.80788651 3.89643883 6.46622423 7.89139003 8.375 13.5625 C8.66536133 14.38661377 8.95572266 15.21072754 9.25488281 16.05981445 C10.18294418 18.70219755 11.09137362 21.35087916 12 24 C12.63121842 25.80524567 13.26402665 27.60993626 13.8984375 29.4140625 C15.08082559 32.77726562 16.25461789 36.14323886 17.421875 39.51171875 C18.8812958 43.70076344 20.42635365 47.85258869 22 52 C23.68095849 48.00586411 25.34437607 44.0047029 27 40 C27.49242187 38.80890625 27.98484375 37.6178125 28.4921875 36.390625 C31.58743464 28.78882633 34.35116623 21.16692751 36.82421875 13.33984375 C38.6364559 8.19212693 40.52234524 3.32625782 45 0 C49.20936945 -0.82357228 50.71957168 -0.17656598 54.375 2.125 C57 5 57 5 57.29205322 7.81604004 C56.98276859 11.18785657 56.21876306 13.68421681 54.95214844 16.81835938 C54.50458191 17.9397229 54.05701538 19.06108643 53.59588623 20.21643066 C53.10533752 21.41344604 52.61478882 22.61046143 52.109375 23.84375 C51.6025775 25.09846659 51.09650608 26.35347668 50.59112549 27.60876465 C49.53162891 30.2339031 48.46506526 32.8560171 47.39306641 35.47607422 C46.0252183 38.8201657 44.67262982 42.1701675 43.32500839 45.52245331 C42.28183048 48.11377783 41.23183984 50.7022981 40.17969513 53.28999329 C39.43662906 55.11991569 38.6982165 56.95172551 37.9598999 58.78356934 C32.05285439 73.17796911 32.05285439 73.17796911 27 77 C22.82014739 77.86884577 19.08845986 77.51949221 15.25 75.6875 C7.33158288 66.22939066 3.65166748 51.54675728 -0.92211914 40.19238281 C-1.85278446 37.88818949 -2.78870334 35.58611145 -3.72973633 33.28613281 C-5.09851427 29.94017833 -6.45133563 26.5881653 -7.80078125 23.234375 C-8.22257156 22.21132263 -8.64436188 21.18827026 -9.07893372 20.13421631 C-11.16199029 14.90319626 -12.80802841 10.64833594 -12 5 C-8.35740398 0.92376159 -5.51295534 -1.17296922 0 0 Z " fill="#FAFBFA" transform="translate(318,246)"/>
<path d="M0 0 C3.54033404 2.71364606 4.85734035 4.16997642 5.62145996 8.61578369 C5.64493695 10.03044638 5.64110314 11.44573059 5.61523438 12.86035156 C5.62078339 13.63666428 5.6263324 14.41297699 5.63204956 15.21281433 C5.64383478 17.77271783 5.61957515 20.33084587 5.59375 22.890625 C5.59203781 24.67795735 5.59210568 26.46529221 5.59387207 28.25262451 C5.59221921 31.99857623 5.57353471 35.74392927 5.54199219 39.48974609 C5.50242961 44.27225347 5.49793394 49.05397286 5.50545502 53.8366127 C5.50853807 57.52916578 5.49635504 61.22154446 5.47932434 64.91405487 C5.47233014 66.67615411 5.46916543 68.43827313 5.47001648 70.20038605 C5.45511631 90.51204334 5.45511631 90.51204334 -0.1875 98.375 C-6.39511989 104.16877857 -12.75505266 104.4975537 -20.93359375 104.2890625 C-25.890082 103.82182666 -29.23173855 102.65418007 -32.9375 99.1875 C-34.38586134 96.2055796 -34.477663 94.2754034 -34 91 C-31.68866831 87.85338508 -30.48581916 87.07662062 -26.58203125 86.4609375 C-25.33808594 86.43257813 -24.09414062 86.40421875 -22.8125 86.375 C-20.53904377 86.31412476 -18.26500305 86.20511024 -16 86 C-14.50973555 83.0194711 -14.86439656 79.97574437 -14.87402344 76.70800781 C-14.8721553 75.95657501 -14.87028717 75.20514221 -14.86836243 74.43093872 C-14.86435418 72.79617913 -14.8622832 71.16141393 -14.86190033 69.52664948 C-14.85848846 66.04966822 -14.8371285 62.57287459 -14.81666946 59.09595871 C-14.7786363 52.61993751 -14.74738299 46.14411432 -14.74951172 39.66796875 C-14.75029947 35.16555287 -14.72690623 30.66382036 -14.6876297 26.16158295 C-14.67717527 24.44726383 -14.67564161 22.73286577 -14.68328094 21.0185318 C-14.69292141 18.61479547 -14.67168776 16.21312066 -14.64355469 13.80957031 C-14.65375137 13.10492645 -14.66394806 12.40028259 -14.67445374 11.67428589 C-14.55753535 6.08559541 -12.80964298 3.79435007 -9 0 C-5.77509551 -1.61245225 -3.43772273 -0.81573082 0 0 Z " fill="#FAFBFA" transform="translate(249,247)"/>
<path d="M0 0 C2.32421875 1.28515625 2.32421875 1.28515625 4.6875 3.0625 C9.76272677 6.48079403 14.89085729 8.75378575 20.625 10.875 C21.41221436 11.172854 22.19942871 11.47070801 23.01049805 11.77758789 C43.01266906 18.95116867 64.65753834 15.2995109 83.46875 6.71875 C86.93352514 5.1066288 86.93352514 5.1066288 89.77734375 3.27734375 C92 2 92 2 95.0625 2.0625 C98.52366286 3.16712644 99.94502229 3.99657104 102 7 C102.5625 10.4375 102.5625 10.4375 102 14 C98.53692911 18.0974278 94.63284288 20.64804105 89.875 23 C89.19139404 23.3410376 88.50778809 23.6820752 87.8034668 24.03344727 C79.57245149 27.94334125 70.86127556 30.03411804 62 32 C61.18660156 32.20238281 60.37320313 32.40476562 59.53515625 32.61328125 C37.98997921 35.89983368 13.98683192 30.49399124 -4.0625 18.25 C-6.91418782 16.12541522 -9.08178846 14.00850198 -11 11 C-11.5 7.5 -11.5 7.5 -11 4 C-7.58048874 0.07761943 -5.06286681 -0.47007797 0 0 Z " fill="#F9FAF9" transform="translate(189,390)"/>
<path d="M0 0 C3.04296875 1.609375 3.04296875 1.609375 6.1875 3.75 C11.87442105 7.46940808 17.46965055 10.11283177 24 12 C25.17949219 12.35578125 26.35898438 12.7115625 27.57421875 13.078125 C45.19917781 17.37528151 65.44634748 14.57782636 81.0625 5.6875 C81.65820801 5.31367188 82.25391602 4.93984375 82.86767578 4.5546875 C86.16747243 2.56530967 87.91194089 1.99530833 91.8125 2.203125 C95 3 95 3 96.9375 4.0625 C98.67087217 7.22335513 98.95231479 10.57918502 98 14 C94.61342469 18.09290014 90.84857633 20.42739409 86.0625 22.5625 C85.41007324 22.85987061 84.75764648 23.15724121 84.08544922 23.46362305 C77.57773697 26.33965247 70.89872272 28.28394272 64 30 C62.8553125 30.33837891 62.8553125 30.33837891 61.6875 30.68359375 C41.56566275 36.20947709 17.7846915 29.83706029 -0.02294922 20.08569336 C-4.86462136 17.27683955 -8.17775452 14.85073442 -11 10 C-11.13178855 6.04634364 -10.92645064 4.06370258 -8.3125 1.0625 C-5.27201594 -0.33447916 -3.33719667 -0.30959535 0 0 Z " fill="#F8F9F8" transform="translate(75,253)"/>
<path d="M0 0 C5.33638974 2.82032879 9.14513701 6.75167075 11.140625 12.52734375 C13.35102108 21.93122183 13.49606862 31.93462626 8.45703125 40.39453125 C5.4091707 44.50288026 1.93111074 46.91644604 -2.96875 48.31640625 C-8.43708123 48.82273322 -12.16540994 47.9849285 -16.96875 45.31640625 C-23.50050209 38.93310307 -25.26762607 32.36256473 -25.40625 23.37890625 C-25.34317668 15.96352899 -24.43214461 10.0159414 -19.25 4.48046875 C-13.70854283 -0.52093115 -7.31934912 -2.54144067 0 0 Z " fill="#30582C" transform="translate(425.96875,260.68359375)"/>
<path d="M0 0 C2.6920166 1.6544342 2.6920166 1.6544342 5 4 C5.62145996 6.9150238 5.62145996 6.9150238 5.61523438 10.34155273 C5.62453979 11.62646103 5.63384521 12.91136932 5.64343262 14.23521423 C5.62784412 15.63468524 5.61125891 17.03414545 5.59375 18.43359375 C5.59203821 19.8732137 5.59210528 21.31283678 5.59387207 22.75245667 C5.59221952 25.76797356 5.5735375 28.78274643 5.54199219 31.7980957 C5.50234943 35.65625038 5.49794298 39.51342928 5.50545502 43.37174892 C5.50853056 46.34443542 5.49638305 49.31690409 5.47932434 52.28953743 C5.47231065 53.7116363 5.46916783 55.13375986 5.47001648 56.55587578 C5.46821113 58.54700396 5.44451712 60.53807564 5.41992188 62.52905273 C5.41150269 63.66060287 5.4030835 64.79215302 5.39440918 65.95799255 C4.82797584 70.32679154 3.07416706 72.92583294 0 76 C-5.06277475 76.66397046 -5.06277475 76.66397046 -8 76 C-10.72994004 73.82936475 -12.44218757 71.11562486 -14 68 C-14.11682364 66.06137165 -14.16972218 64.11876496 -14.19287109 62.17675781 C-14.20893402 60.9549884 -14.22499695 59.73321899 -14.24154663 58.47442627 C-14.253035 57.13399959 -14.26364339 55.79356513 -14.2734375 54.453125 C-14.27876118 53.77842918 -14.28408485 53.10373337 -14.28956985 52.40859222 C-14.31629844 48.83555742 -14.33567186 45.26255747 -14.35009766 41.68945312 C-14.36342413 38.73666311 -14.39125092 35.78456631 -14.43212891 32.83203125 C-14.48153418 29.26347771 -14.50622829 25.69555177 -14.51332474 22.12667084 C-14.52327313 20.11142052 -14.55749981 18.09633713 -14.59213257 16.08135986 C-14.56856487 5.87396378 -14.56856487 5.87396378 -11.59228516 2.18261719 C-7.34578502 -1.39279355 -5.43098921 -1.19665864 0 0 Z " fill="#F8F9F8" transform="translate(287,247)"/>
<path d="M0 0 C1.9375 1.125 1.9375 1.125 3 3 C3.53852618 6.61581862 3.42236225 8.34111489 1.4375 11.4375 C-1 13 -1 13 -4.625 12.9375 C-8 12 -8 12 -10 9 C-10.32162076 5.9124407 -10.48724515 3.85984439 -8.9375 1.125 C-5.8930714 -0.64273274 -3.4368988 -0.36823916 0 0 Z " fill="#8DA38A" transform="translate(468,250)"/>
<path d="M0 0 C1.65 0 3.3 0 5 0 C5 4 5 4 4 7 C3.67 6.01 3.34 5.02 3 4 C2.34 4 1.68 4 1 4 C0.67 4.99 0.34 5.98 0 7 C0 4.69 0 2.38 0 0 Z " fill="#AEBEAC" transform="translate(462,253)"/>
<path d="M0 0 C0.66 0.33 1.32 0.66 2 1 C1.125 5.875 1.125 5.875 0 7 C-1.99958364 7.04080783 -4.00045254 7.04254356 -6 7 C-5.67 5.68 -5.34 4.36 -5 3 C-4 3 -3 3 -2 3 C-1.34 2.01 -0.68 1.02 0 0 Z " fill="#40653C" transform="translate(468,254)"/>
</svg>
